<svg width="56" height="56" viewBox="0 0 56 56" fill="none" xmlns="http://www.w3.org/2000/svg">
<rect x="4" y="4" width="48" height="48" rx="24" fill="#FF8D00" fill-opacity="0.23"/>
<rect x="4" y="4" width="48" height="48" rx="24" stroke="#FF8D00" stroke-opacity="0.09" stroke-width="8"/>
<g clip-path="url(#clip0_347_404)">
<path d="M16.75 37.2521H18.65C18.883 37.2521 19.113 37.3061 19.321 37.4101L21.054 38.2771C21.6788 38.5892 22.3676 38.7518 23.066 38.7521H34.75C35.1478 38.7521 35.5294 38.5941 35.8107 38.3128C36.092 38.0314 36.25 37.6499 36.25 37.2521C36.25 36.8543 36.092 36.4727 35.8107 36.1914C35.5294 35.9101 35.1478 35.7521 34.75 35.7521M34.75 35.7521H37C37.3978 35.7521 37.7794 35.5941 38.0607 35.3128C38.342 35.0314 38.5 34.6499 38.5 34.2521C38.5 33.8543 38.342 33.4727 38.0607 33.1914C37.7794 32.9101 37.3978 32.7521 37 32.7521M34.75 35.7521H31.75M37 32.7521H37.75C38.1478 32.7521 38.5294 32.5941 38.8107 32.3128C39.092 32.0314 39.25 31.6499 39.25 31.2521C39.25 30.8543 39.092 30.4727 38.8107 30.1914C38.5294 29.9101 38.1478 29.7521 37.75 29.7521H36.25M37 32.7521H32.5M36.25 29.7521C36.6478 29.7521 37.0294 29.5941 37.3107 29.3128C37.592 29.0314 37.75 28.6499 37.75 28.2521C37.75 27.8543 37.592 27.4727 37.3107 27.1914C37.0294 26.9101 36.6478 26.7521 36.25 26.7521H31M36.25 29.7521H32.5M31 26.7521C31.3978 26.7521 31.7794 26.5941 32.0607 26.3128C32.342 26.0314 32.5 25.6499 32.5 25.2521C32.5 24.8543 32.342 24.4727 32.0607 24.1914C31.7794 23.9101 31.3978 23.7521 31 23.7521H25.158C24.4176 23.7517 23.6885 23.934 23.0354 24.2829C22.3823 24.6318 21.8254 25.1364 21.414 25.7521L20.2 27.5841C20.063 27.7896 19.8775 27.958 19.6598 28.0746C19.442 28.1911 19.1989 28.2521 18.952 28.2521H16.75M31 26.7521H28.75M39 24.2481C38.9999 23.9736 38.943 23.7021 38.833 23.4507C38.7229 23.1992 38.5621 22.9732 38.3606 22.7868C38.1591 22.6004 37.9213 22.4577 37.662 22.3676C37.4028 22.2774 37.1277 22.2419 36.854 22.2631C36.947 21.9331 36.996 21.5911 37 21.2481C37.0028 20.407 36.7397 19.5865 36.2483 18.9038C35.7568 18.2211 35.0623 17.7112 34.2637 17.447C33.4652 17.1827 32.6035 17.1775 31.8019 17.4322C31.0002 17.6869 30.2996 18.1884 29.8 18.8651C29.2482 18.4442 28.567 18.2286 27.8736 18.2554C27.1801 18.2823 26.5176 18.5498 26 19.0121" stroke="#FF8D00" stroke-width="1.5" stroke-linecap="round" stroke-linejoin="round"/>
</g>
<defs>
<clipPath id="clip0_347_404">
<rect width="24" height="24" fill="white" transform="translate(16 16)"/>
</clipPath>
</defs>
</svg>
