<svg width="56" height="56" viewBox="0 0 56 56" fill="none" xmlns="http://www.w3.org/2000/svg">
<rect x="4" y="4" width="48" height="48" rx="24" fill="#FF8D00" fill-opacity="0.23"/>
<rect x="4" y="4" width="48" height="48" rx="24" stroke="#FF8D00" stroke-opacity="0.09" stroke-width="8"/>
<path d="M26.0501 26.6069L18.9801 33.6769C18.7942 33.8626 18.6467 34.0832 18.546 34.326C18.4454 34.5688 18.3936 34.8291 18.3936 35.0919C18.3936 35.3547 18.4454 35.615 18.546 35.8578C18.6467 36.1006 18.7942 36.3211 18.9801 36.5069C19.3552 36.8818 19.8638 37.0925 20.3941 37.0925C20.9245 37.0925 21.4331 36.8818 21.8081 36.5069L28.8781 29.4349M33.1931 29.7999L37.0711 33.6779C37.4461 34.0529 37.6567 34.5616 37.6567 35.0919C37.6567 35.6222 37.4461 36.1308 37.0711 36.5059C36.6961 36.8808 36.1875 37.0915 35.6571 37.0915C35.1268 37.0915 34.6182 36.8808 34.2431 36.5059L28.0341 30.2979M22.7331 21.9039L20.6101 22.6099L18.4901 19.0749L19.9041 17.6609L23.4401 19.7819L22.7331 21.9039ZM22.7331 21.9039L25.5631 24.7339" stroke="#FF8D00" stroke-width="1.5" stroke-linecap="round" stroke-linejoin="round"/>
<path d="M26.0497 26.607C25.2057 24.454 25.3707 21.629 27.1107 19.889C28.8507 18.149 32.0607 17.768 33.8277 18.829L30.7877 21.869L30.5047 24.98L33.6157 24.698L36.6557 21.657C37.7177 23.425 37.3357 26.635 35.5957 28.374C33.8557 30.114 31.0317 30.279 28.8787 29.435" stroke="#FF8D00" stroke-width="1.5" stroke-linecap="round" stroke-linejoin="round"/>
</svg>
