<svg width="56" height="56" viewBox="0 0 56 56" fill="none" xmlns="http://www.w3.org/2000/svg">
<rect x="4" y="4" width="48" height="48" rx="24" fill="#FF8D00" fill-opacity="0.23"/>
<rect x="4" y="4" width="48" height="48" rx="24" stroke="#FF8D00" stroke-opacity="0.09" stroke-width="8"/>
<path d="M36.8004 23.7961C37.8412 25.9728 38.0387 28.4579 37.355 30.7717C36.6713 33.0855 35.1547 35.064 33.098 36.3253C31.0413 37.5867 28.5902 38.0416 26.2179 37.602C23.8456 37.1625 21.7201 35.8598 20.2518 33.9454C18.7834 32.0309 18.0763 29.6405 18.2668 27.2353C18.4573 24.8301 19.532 22.5808 21.2835 20.9214C23.0349 19.262 25.3389 18.3102 27.7509 18.2497C30.1628 18.1891 32.5117 19.0242 34.3442 20.5936L36.4695 18.4674C36.6102 18.3267 36.8011 18.2476 37.0001 18.2476C37.1991 18.2476 37.39 18.3267 37.5307 18.4674C37.6715 18.6081 37.7505 18.799 37.7505 18.998C37.7505 19.197 37.6715 19.3879 37.5307 19.5286L28.5307 28.5286C28.39 28.6694 28.1991 28.7484 28.0001 28.7484C27.8011 28.7484 27.6102 28.6694 27.4695 28.5286C27.3288 28.3879 27.2497 28.197 27.2497 27.998C27.2497 27.799 27.3288 27.6081 27.4695 27.4674L30.0682 24.8686C29.3639 24.4028 28.5231 24.1884 27.6817 24.26C26.8404 24.3315 26.0478 24.685 25.4323 25.2631C24.8168 25.8411 24.4145 26.61 24.2903 27.4452C24.1662 28.2805 24.3276 29.1331 24.7484 29.8652C25.1692 30.5973 25.8247 31.1659 26.6089 31.4791C27.3931 31.7922 28.26 31.8315 29.0693 31.5907C29.8786 31.3498 30.5829 30.8428 31.0683 30.1519C31.5536 29.4609 31.7915 28.6263 31.7435 27.7833C31.738 27.6848 31.7519 27.5862 31.7845 27.4931C31.8171 27.4 31.8677 27.3142 31.9334 27.2406C31.9991 27.1671 32.0787 27.1072 32.1676 27.0644C32.2564 27.0216 32.3529 26.9967 32.4514 26.9911C32.6503 26.9799 32.8455 27.0482 32.994 27.181C33.0676 27.2467 33.1275 27.3263 33.1703 27.4151C33.2131 27.504 33.238 27.6005 33.2435 27.6989C33.3119 28.8922 32.9711 30.073 32.2774 31.0463C31.5838 32.0196 30.5788 32.7271 29.4285 33.0518C28.2783 33.3765 27.0517 33.2991 25.9515 32.8322C24.8512 32.3654 23.9432 31.5371 23.3775 30.4843C22.8118 29.4315 22.6222 28.2171 22.8402 27.042C23.0581 25.8668 23.6705 24.8012 24.5761 24.0213C25.4817 23.2413 26.6264 22.7937 27.8208 22.7524C29.0153 22.7112 30.1881 23.0787 31.1454 23.7943L33.2782 21.6614C31.7152 20.3638 29.7279 19.6893 27.6979 19.7676C25.6679 19.8459 23.7384 20.6714 22.28 22.0856C20.8216 23.4999 19.9371 25.403 19.7965 27.4297C19.6558 29.4563 20.2688 31.4634 21.5178 33.0656C22.7668 34.6678 24.5637 35.752 26.5634 36.11C28.5631 36.468 30.6246 36.0746 32.3519 35.0053C34.0792 33.9361 35.3506 32.2663 35.9218 30.3168C36.493 28.3672 36.3238 26.2754 35.4467 24.443C35.3609 24.2635 35.3499 24.0572 35.4162 23.8697C35.4825 23.6821 35.6206 23.5285 35.8001 23.4427C35.9796 23.3569 36.1859 23.346 36.3735 23.4122C36.5611 23.4785 36.7146 23.6166 36.8004 23.7961Z" fill="#FF8D00"/>
</svg>
