<svg width="56" height="56" viewBox="0 0 56 56" fill="none" xmlns="http://www.w3.org/2000/svg">
<rect x="4" y="4" width="48" height="48" rx="24" fill="#FF8D00" fill-opacity="0.23"/>
<rect x="4" y="4" width="48" height="48" rx="24" stroke="#FF8D00" stroke-opacity="0.09" stroke-width="8"/>
<path d="M19.5868 19.8999L35.8678 26.2259L31.0388 28.2319C29.6273 28.8174 28.5059 29.9392 27.9208 31.3509L25.9148 36.1789L19.5868 19.8999ZM17.7398 20.5819L24.0678 36.8629C24.4678 37.8929 25.6188 38.4199 26.6388 38.0429C26.8874 37.9511 27.1143 37.809 27.3053 37.6254C27.4963 37.4417 27.6473 37.2206 27.7488 36.9759L29.7558 32.1459C30.1463 31.2052 30.894 30.4579 31.8348 30.0679L36.6628 28.0619C37.6668 27.6449 38.1248 26.4859 37.6858 25.4719C37.578 25.2241 37.4222 25 37.2274 24.8126C37.0326 24.6251 36.8027 24.4781 36.5508 24.3799L20.2698 18.0519C19.9162 17.9098 19.5285 17.8747 19.155 17.951C18.7816 18.0274 18.4388 18.2118 18.1692 18.4813C17.8997 18.7508 17.7153 19.0936 17.639 19.4671C17.5626 19.8406 17.5977 20.2282 17.7398 20.5819Z" fill="#FF8D00"/>
</svg>
