<svg width="56" height="56" viewBox="0 0 56 56" fill="none" xmlns="http://www.w3.org/2000/svg">
<rect x="4" y="4" width="48" height="48" rx="24" fill="#FF8D00" fill-opacity="0.23"/>
<rect x="4" y="4" width="48" height="48" rx="24" stroke="#FF8D00" stroke-opacity="0.09" stroke-width="8"/>
<path d="M30.8125 36.8125H25.1875C25.0844 36.8125 25 36.8969 25 37V37.75C25 38.1648 25.3352 38.5 25.75 38.5H30.25C30.6648 38.5 31 38.1648 31 37.75V37C31 36.8969 30.9156 36.8125 30.8125 36.8125ZM28 17.5C23.7555 17.5 20.3125 20.943 20.3125 25.1875C20.3125 28.0328 21.8594 30.5172 24.1562 31.8461V34.5625C24.1562 34.9773 24.4914 35.3125 24.9062 35.3125H31.0938C31.5086 35.3125 31.8438 34.9773 31.8438 34.5625V31.8461C34.1406 30.5172 35.6875 28.0328 35.6875 25.1875C35.6875 20.943 32.2445 17.5 28 17.5ZM30.9977 30.3859L30.1562 30.8734V33.625H25.8438V30.8734L25.0023 30.3859C23.1578 29.3195 22 27.3555 22 25.1875C22 21.8734 24.6859 19.1875 28 19.1875C31.3141 19.1875 34 21.8734 34 25.1875C34 27.3555 32.8422 29.3195 30.9977 30.3859Z" fill="#FF8D00"/>
</svg>
