<svg width="56" height="56" viewBox="0 0 56 56" fill="none" xmlns="http://www.w3.org/2000/svg">
<rect x="4" y="4" width="48" height="48" rx="24" fill="#FF8D00" fill-opacity="0.23"/>
<rect x="4" y="4" width="48" height="48" rx="24" stroke="#FF8D00" stroke-opacity="0.09" stroke-width="8"/>
<path d="M28 18.25C26.0716 18.25 24.1866 18.8218 22.5832 19.8932C20.9798 20.9645 19.7301 22.4873 18.9922 24.2688C18.2542 26.0504 18.0611 28.0108 18.4373 29.9021C18.8136 31.7934 19.7422 33.5307 21.1057 34.8943C22.4693 36.2579 24.2066 37.1865 26.0979 37.5627C27.9892 37.9389 29.9496 37.7458 31.7312 37.0078C33.5127 36.2699 35.0355 35.0202 36.1068 33.4168C37.1782 31.8134 37.75 29.9284 37.75 28C37.7473 25.415 36.7192 22.9366 34.8913 21.1087C33.0634 19.2808 30.585 18.2527 28 18.25ZM25.5278 31.75H30.4722C29.9688 33.4694 29.125 35.0191 28 36.2397C26.875 35.0191 26.0313 33.4694 25.5278 31.75ZM25.1875 30.25C24.9388 28.7603 24.9388 27.2397 25.1875 25.75H30.8125C31.0613 27.2397 31.0613 28.7603 30.8125 30.25H25.1875ZM19.75 28C19.7494 27.2392 19.8544 26.4819 20.0622 25.75H23.6678C23.4441 27.2417 23.4441 28.7583 23.6678 30.25H20.0622C19.8544 29.5181 19.7494 28.7608 19.75 28ZM30.4722 24.25H25.5278C26.0313 22.5306 26.875 20.9809 28 19.7603C29.125 20.9809 29.9688 22.5306 30.4722 24.25ZM32.3322 25.75H35.9378C36.3541 27.2211 36.3541 28.7789 35.9378 30.25H32.3322C32.5559 28.7583 32.5559 27.2417 32.3322 25.75ZM35.3472 24.25H32.0256C31.6429 22.7439 31.0001 21.3162 30.1263 20.0312C31.2427 20.3313 32.2839 20.8616 33.1831 21.5882C34.0823 22.3148 34.8194 23.2215 35.3472 24.25ZM25.8738 20.0312C24.9999 21.3162 24.3571 22.7439 23.9744 24.25H20.6528C21.1806 23.2215 21.9177 22.3148 22.8169 21.5882C23.7161 20.8616 24.7573 20.3313 25.8738 20.0312ZM20.6528 31.75H23.9744C24.3571 33.2561 24.9999 34.6838 25.8738 35.9688C24.7573 35.6687 23.7161 35.1384 22.8169 34.4118C21.9177 33.6852 21.1806 32.7785 20.6528 31.75ZM30.1263 35.9688C31.0001 34.6838 31.6429 33.2561 32.0256 31.75H35.3472C34.8194 32.7785 34.0823 33.6852 33.1831 34.4118C32.2839 35.1384 31.2427 35.6687 30.1263 35.9688Z" fill="#FF8D00"/>
</svg>
