<svg width="56" height="56" viewBox="0 0 56 56" fill="none" xmlns="http://www.w3.org/2000/svg">
<rect x="4" y="4" width="48" height="48" rx="24" fill="#FF8D00" fill-opacity="0.23"/>
<rect x="4" y="4" width="48" height="48" rx="24" stroke="#FF8D00" stroke-opacity="0.09" stroke-width="8"/>
<path d="M21.25 17.5C21.4489 17.5 21.6397 17.579 21.7803 17.7197C21.921 17.8603 22 18.0511 22 18.25V22.75C21.9998 23.2155 22.1439 23.6696 22.4125 24.0497C22.6812 24.4299 23.0611 24.7173 23.5 24.8725V18.25C23.5 18.0511 23.579 17.8603 23.7197 17.7197C23.8603 17.579 24.0511 17.5 24.25 17.5C24.4489 17.5 24.6397 17.579 24.7803 17.7197C24.921 17.8603 25 18.0511 25 18.25V24.8725C25.4389 24.7173 25.8188 24.4299 26.0875 24.0497C26.3561 23.6696 26.5002 23.2155 26.5 22.75V18.25C26.5 18.0511 26.579 17.8603 26.7197 17.7197C26.8603 17.579 27.0511 17.5 27.25 17.5C27.4489 17.5 27.6397 17.579 27.7803 17.7197C27.921 17.8603 28 18.0511 28 18.25V22.75C28.0002 23.6145 27.7017 24.4525 27.155 25.1222C26.6083 25.7919 25.847 26.2521 25 26.425V37.75C25 37.9489 24.921 38.1397 24.7803 38.2803C24.6397 38.421 24.4489 38.5 24.25 38.5C24.0511 38.5 23.8603 38.421 23.7197 38.2803C23.579 38.1397 23.5 37.9489 23.5 37.75V26.425C22.653 26.2521 21.8917 25.7919 21.345 25.1222C20.7983 24.4525 20.4998 23.6145 20.5 22.75V18.25C20.5 18.0511 20.579 17.8603 20.7197 17.7197C20.8603 17.579 21.0511 17.5 21.25 17.5ZM31.7185 19.7185C31.957 19.4785 32.2255 19.294 32.5 19.1725V26.5H31V21.25C31 20.7445 31.261 20.1745 31.7185 19.7185ZM32.5 28V37.75C32.5 37.9489 32.579 38.1397 32.7197 38.2803C32.8603 38.421 33.0511 38.5 33.25 38.5C33.4489 38.5 33.6397 38.421 33.7803 38.2803C33.921 38.1397 34 37.9489 34 37.75V18.25C34 18.0511 33.921 17.8603 33.7803 17.7197C33.6397 17.579 33.4489 17.5 33.25 17.5C32.2555 17.5 31.3255 17.989 30.6565 18.6565C29.989 19.3255 29.5 20.2555 29.5 21.25V27.25C29.5 27.4489 29.579 27.6397 29.7197 27.7803C29.8603 27.921 30.0511 28 30.25 28H32.5Z" fill="#FF8D00"/>
</svg>
