<svg width="56" height="56" viewBox="0 0 56 56" fill="none" xmlns="http://www.w3.org/2000/svg">
<rect x="4" y="4" width="48" height="48" rx="24" fill="#FF8D00" fill-opacity="0.23"/>
<rect x="4" y="4" width="48" height="48" rx="24" stroke="#FF8D00" stroke-opacity="0.09" stroke-width="8"/>
<path d="M37 37L31 31M19 26C19 26.9193 19.1811 27.8295 19.5328 28.6788C19.8846 29.5281 20.4002 30.2997 21.0503 30.9497C21.7003 31.5998 22.4719 32.1154 23.3212 32.4672C24.1705 32.8189 25.0807 33 26 33C26.9193 33 27.8295 32.8189 28.6788 32.4672C29.5281 32.1154 30.2997 31.5998 30.9497 30.9497C31.5998 30.2997 32.1154 29.5281 32.4672 28.6788C32.8189 27.8295 33 26.9193 33 26C33 25.0807 32.8189 24.1705 32.4672 23.3212C32.1154 22.4719 31.5998 21.7003 30.9497 21.0503C30.2997 20.4002 29.5281 19.8846 28.6788 19.5328C27.8295 19.1811 26.9193 19 26 19C25.0807 19 24.1705 19.1811 23.3212 19.5328C22.4719 19.8846 21.7003 20.4002 21.0503 21.0503C20.4002 21.7003 19.8846 22.4719 19.5328 23.3212C19.1811 24.1705 19 25.0807 19 26Z" stroke="#FF8D00" stroke-width="2" stroke-linecap="round" stroke-linejoin="round"/>
</svg>
