<svg width="56" height="56" viewBox="0 0 56 56" fill="none" xmlns="http://www.w3.org/2000/svg">
<rect x="4" y="4" width="48" height="48" rx="24" fill="#FF8D00" fill-opacity="0.23"/>
<rect x="4" y="4" width="48" height="48" rx="24" stroke="#FF8D00" stroke-opacity="0.09" stroke-width="8"/>
<path d="M34.5 25H32.5M32.5 25H30.5M32.5 25V23M32.5 25V27" stroke="#FF8D00" stroke-width="1.5" stroke-linecap="round"/>
<path d="M28 21.574L27.452 22.086C27.5222 22.1611 27.607 22.221 27.7013 22.2619C27.7956 22.3029 27.8972 22.324 28 22.324C28.1028 22.324 28.2044 22.3029 28.2987 22.2619C28.393 22.221 28.4778 22.1611 28.548 22.086L28 21.574ZM18.652 29.682C18.7015 29.7692 18.7679 29.8456 18.8474 29.9067C18.9269 29.9677 19.0179 30.0122 19.1149 30.0375C19.2119 30.0629 19.3129 30.0685 19.4121 30.0541C19.5113 30.0396 19.6067 30.0055 19.6924 29.9536C19.7782 29.9017 19.8527 29.8332 19.9115 29.752C19.9704 29.6708 20.0123 29.5787 20.0349 29.4811C20.0576 29.3834 20.0604 29.2822 20.0432 29.1834C20.026 29.0847 19.9892 28.9903 19.935 28.906L18.652 29.682ZM22.537 32.171C22.4692 32.0967 22.3872 32.0368 22.2958 31.9949C22.2045 31.9529 22.1056 31.9298 22.0051 31.9268C21.9045 31.9238 21.8045 31.9411 21.7108 31.9776C21.617 32.0141 21.5316 32.069 21.4596 32.1392C21.3876 32.2093 21.3304 32.2933 21.2914 32.386C21.2525 32.4787 21.2326 32.5783 21.2329 32.6788C21.2332 32.7794 21.2537 32.8789 21.2933 32.9713C21.3328 33.0638 21.3905 33.1473 21.463 33.217L22.537 32.171ZM18.75 25.318C18.75 22.413 20.018 20.618 21.586 20.003C23.151 19.39 25.34 19.828 27.452 22.086L28.548 21.062C26.16 18.508 23.349 17.702 21.039 18.606C18.732 19.51 17.25 21.992 17.25 25.318H18.75ZM31.51 35.96C33.003 34.749 34.791 33.126 36.213 31.313C37.62 29.519 38.75 27.434 38.75 25.316H37.25C37.25 26.928 36.37 28.68 35.032 30.387C33.708 32.076 32.016 33.619 30.566 34.795L31.51 35.96ZM38.75 25.316C38.75 21.991 37.268 19.509 34.96 18.606C32.65 17.701 29.84 18.506 27.452 21.061L28.548 22.086C30.66 19.828 32.849 19.389 34.414 20.002C35.982 20.616 37.25 22.412 37.25 25.316H38.75ZM24.49 35.961C25.76 36.993 26.642 37.75 28 37.75V36.25C27.277 36.25 26.827 35.926 25.434 34.796L24.49 35.961ZM30.566 34.795C29.173 35.925 28.723 36.25 28 36.25V37.75C29.358 37.75 30.241 36.993 31.511 35.961L30.566 34.795ZM19.936 28.906C19.187 27.67 18.75 26.455 18.75 25.318H17.25C17.25 26.83 17.826 28.318 18.652 29.682L19.935 28.906H19.936ZM25.434 34.796C24.4186 33.9775 23.4513 33.1011 22.537 32.171L21.463 33.217C22.4179 34.1893 23.4293 35.1055 24.49 35.961L25.434 34.796Z" fill="#FF8D00"/>
</svg>
