<svg width="56" height="56" viewBox="0 0 56 56" fill="none" xmlns="http://www.w3.org/2000/svg">
<rect x="4" y="4" width="48" height="48" rx="24" fill="#FF8D00" fill-opacity="0.23"/>
<rect x="4" y="4" width="48" height="48" rx="24" stroke="#FF8D00" stroke-opacity="0.09" stroke-width="8"/>
<path d="M24.9996 35.5001C24.9996 35.699 24.9206 35.8898 24.7799 36.0304C24.6393 36.1711 24.4485 36.2501 24.2496 36.2501H19.7496C19.3548 36.2498 18.9669 36.1457 18.6251 35.9481C18.2832 35.7505 17.9994 35.4665 17.8021 35.1245C17.6048 34.7825 17.5009 34.3946 17.501 33.9997C17.501 33.6049 17.605 33.217 17.8024 32.8751L21.0171 27.3204L19.6999 27.6719C19.6045 27.6974 19.505 27.7039 19.4071 27.6909C19.3092 27.6779 19.2148 27.6458 19.1293 27.5964C18.9567 27.4965 18.8308 27.3321 18.7793 27.1394C18.7278 26.9468 18.755 26.7415 18.8549 26.5689C18.9547 26.3962 19.1191 26.2703 19.3118 26.2188L22.384 25.3966C22.4791 25.3711 22.5784 25.3646 22.6761 25.3775C22.7738 25.3903 22.868 25.4223 22.9533 25.4716C23.0386 25.5209 23.1134 25.5865 23.1734 25.6647C23.2333 25.7428 23.2773 25.8321 23.3027 25.9273L24.1268 28.9994C24.1528 29.0951 24.1597 29.1949 24.1469 29.2931C24.1341 29.3914 24.102 29.4861 24.0524 29.5719C24.0028 29.6577 23.9367 29.7328 23.8579 29.7929C23.7791 29.8529 23.6892 29.8968 23.5934 29.9219C23.5297 29.9385 23.4642 29.947 23.3984 29.9473C23.2334 29.9471 23.073 29.8925 22.9422 29.792C22.8113 29.6915 22.7173 29.5507 22.6746 29.3913L22.3184 28.0648L19.1037 33.6251C19.038 33.7388 19.0033 33.8678 19.0032 33.9992C19.003 34.1305 19.0374 34.2596 19.1028 34.3735C19.1682 34.4874 19.2623 34.5822 19.3759 34.6483C19.4894 34.7143 19.6183 34.7494 19.7496 34.7501H24.2496C24.4485 34.7501 24.6393 34.8291 24.7799 34.9697C24.9206 35.1104 24.9996 35.3012 24.9996 35.5001ZM38.193 32.8751L36.0237 29.1251C35.9199 28.9618 35.7571 28.845 35.5692 28.799C35.3813 28.7529 35.1829 28.7813 35.0154 28.8781C34.8479 28.9749 34.7243 29.1327 34.6704 29.3185C34.6165 29.5042 34.6365 29.7037 34.7262 29.8751L36.8955 33.6251C36.9612 33.7388 36.9959 33.8678 36.996 33.9992C36.9962 34.1305 36.9618 34.2596 36.8964 34.3735C36.831 34.4874 36.7369 34.5822 36.6234 34.6483C36.5098 34.7143 36.381 34.7494 36.2496 34.7501H29.8099L30.7793 33.7807C30.92 33.6401 30.9991 33.4493 30.9992 33.2504C30.9993 33.0515 30.9204 32.8606 30.7798 32.7199C30.6392 32.5792 30.4484 32.5001 30.2495 32.5C30.0505 32.4999 29.8597 32.5788 29.719 32.7194L27.469 34.9694C27.3992 35.0391 27.3439 35.1218 27.3062 35.2129C27.2684 35.3039 27.249 35.4015 27.249 35.5001C27.249 35.5986 27.2684 35.6962 27.3062 35.7873C27.3439 35.8783 27.3992 35.961 27.469 36.0307L29.719 38.2807C29.7887 38.3503 29.8714 38.4055 29.9624 38.4432C30.0534 38.4808 30.151 38.5002 30.2495 38.5002C30.348 38.5001 30.4455 38.4807 30.5365 38.4429C30.6275 38.4052 30.7101 38.3499 30.7798 38.2802C30.8494 38.2105 30.9046 38.1278 30.9423 38.0368C30.9799 37.9458 30.9993 37.8482 30.9992 37.7497C30.9992 37.6512 30.9797 37.5537 30.942 37.4627C30.9043 37.3717 30.849 37.2891 30.7793 37.2194L29.8099 36.2501H36.2496C36.6444 36.2498 37.0323 36.1457 37.3741 35.9481C37.716 35.7505 37.9998 35.4665 38.1971 35.1245C38.3945 34.7825 38.4983 34.3946 38.4982 33.9997C38.4982 33.6049 38.3942 33.217 38.1968 32.8751H38.193ZM27.9996 19.0001C28.1314 18.9988 28.2612 19.0329 28.3753 19.0988C28.4894 19.1648 28.5837 19.2602 28.6484 19.3751L31.863 24.9298L30.543 24.5754C30.3533 24.5308 30.1536 24.5619 29.9864 24.6621C29.8191 24.7622 29.6974 24.9235 29.6471 25.1119C29.5968 25.3002 29.6217 25.5007 29.7167 25.6709C29.8117 25.8412 29.9692 25.9677 30.1559 26.0238L33.229 26.8479C33.2923 26.8645 33.3575 26.873 33.423 26.8732C33.588 26.873 33.7484 26.8185 33.8792 26.718C34.0101 26.6175 34.1041 26.4766 34.1468 26.3173L34.9709 23.2432C34.9991 23.1472 35.0079 23.0466 34.9967 22.9471C34.9855 22.8477 34.9545 22.7515 34.9056 22.6642C34.8566 22.577 34.7907 22.5004 34.7117 22.439C34.6327 22.3776 34.5422 22.3326 34.4456 22.3067C34.3489 22.2808 34.2481 22.2745 34.149 22.2882C34.0498 22.3019 33.9545 22.3352 33.8684 22.3863C33.7824 22.4374 33.7075 22.5052 33.648 22.5857C33.5886 22.6662 33.5459 22.7578 33.5224 22.8551L33.1662 24.1835L29.9468 18.6251C29.7491 18.2837 29.4652 18.0002 29.1234 17.8032C28.7817 17.6062 28.3941 17.5024 27.9996 17.5024C27.6051 17.5024 27.2176 17.6062 26.8758 17.8032C26.534 18.0002 26.2501 18.2837 26.0524 18.6251L23.8812 22.3751C23.7879 22.5469 23.7654 22.7483 23.8184 22.9365C23.8714 23.1246 23.9959 23.2846 24.1651 23.3824C24.3344 23.4802 24.5352 23.508 24.7247 23.4599C24.9142 23.4119 25.0774 23.2917 25.1796 23.1251L27.3509 19.3751C27.4155 19.2602 27.5098 19.1648 27.6239 19.0988C27.7381 19.0329 27.8678 18.9988 27.9996 19.0001Z" fill="#FF8D00"/>
</svg>
