<svg width="56" height="56" viewBox="0 0 56 56" fill="none" xmlns="http://www.w3.org/2000/svg">
<rect x="4" y="4" width="48" height="48" rx="24" fill="#FF8D00" fill-opacity="0.23"/>
<rect x="4" y="4" width="48" height="48" rx="24" stroke="#FF8D00" stroke-opacity="0.09" stroke-width="8"/>
<path d="M33.9897 23.7499C33.7267 23.5094 33.4403 23.2958 33.1347 23.1124L32.4017 22.6724C31.7221 22.2647 30.975 21.9822 30.1957 21.8384L29.9337 21.7904C28.5248 21.5304 27.1661 21.0485 25.9082 20.3629C25.8514 20.1115 25.7262 19.8806 25.5463 19.696C25.3664 19.5113 25.1389 19.3801 24.889 19.3169C24.6391 19.2536 24.3765 19.2608 24.1304 19.3376C23.8843 19.4144 23.6643 19.5578 23.4948 19.752C23.3253 19.9462 23.2128 20.1836 23.1699 20.4378C23.127 20.692 23.1553 20.9531 23.2517 21.1922C23.348 21.4313 23.5088 21.639 23.716 21.7923C23.9232 21.9457 24.1688 22.0386 24.4257 22.0609C25.2537 22.8709 25.9532 23.8024 26.5002 24.8234" stroke="#FF8D00" stroke-width="1.5" stroke-linecap="round" stroke-linejoin="round"/>
<path d="M21.6535 28.5099C21.5225 28.6499 20 30.3249 20 31.9999C20 33.7499 20.779 34.4999 21.5 34.9999C22.221 35.4999 23.36 35.9999 24.305 35.9999C25.25 35.9999 30.25 36.4999 32.5 35.9999C34.75 35.4999 35 34.9999 36 33.9999C36.5405 33.4594 36.941 32.6989 37.195 32.1149C37.4384 31.5483 37.6349 30.9626 37.7825 30.3639C37.9625 29.6459 38.144 28.6149 38 27.7499C37.75 26.2499 37 25.2499 34.5 23.9999C32.198 22.8489 30.1765 23.3939 29.871 23.4874C29.844 23.4958 29.8171 23.5048 29.7905 23.5144C29.3905 23.6559 26.158 24.8124 24.7855 25.7499C23.3845 26.7069 21.8045 28.3509 21.6715 28.4904C21.6655 28.4967 21.6594 28.503 21.6535 28.5094V28.5099Z" stroke="#FF8D00" stroke-width="1.5" stroke-linecap="round" stroke-linejoin="round"/>
<path d="M19.0516 26.005C18.7948 25.9827 18.5492 25.8898 18.342 25.7364C18.1347 25.5831 17.974 25.3753 17.8776 25.1363C17.7812 24.8972 17.7529 24.6361 17.7958 24.3819C17.8388 24.1277 17.9512 23.8903 18.1208 23.6961C18.2903 23.5019 18.5103 23.3585 18.7564 23.2817C19.0025 23.2049 19.265 23.1977 19.5149 23.2609C19.7648 23.3242 19.9924 23.4554 20.1723 23.6401C20.3521 23.8247 20.4774 24.0556 20.5341 24.307C21.7921 24.9925 23.1508 25.4741 24.5596 25.734L24.8216 25.7825C25.6011 25.926 26.3481 26.2085 27.0276 26.6165L27.7606 27.056C28.2504 27.35 28.6897 27.721 29.0616 28.1545L29.2646 28.3905C29.5672 28.7432 29.7918 29.1557 29.9238 29.6012C30.0558 30.0467 30.0922 30.515 30.0306 30.9755L30.0166 31.081C29.932 31.7156 29.645 32.306 29.1981 32.7645L28.9671 33.001C28.5914 33.3865 28.128 33.6753 27.6165 33.8428C27.105 34.0103 26.5606 34.0516 26.0296 33.963C25.1962 33.8241 24.4246 33.4353 23.8171 32.848L23.4476 32.491C23.1505 32.2039 22.8929 31.8786 22.6816 31.5235L21.5956 29.6975L21.2786 29.0625C20.7121 27.9261 19.9593 26.893 19.0516 26.005Z" stroke="#FF8D00" stroke-width="1.5" stroke-linecap="round" stroke-linejoin="round"/>
</svg>
