<svg width="56" height="56" viewBox="0 0 56 56" fill="none" xmlns="http://www.w3.org/2000/svg">
<rect x="4" y="4" width="48" height="48" rx="24" fill="#FF8D00" fill-opacity="0.23"/>
<rect x="4" y="4" width="48" height="48" rx="24" stroke="#FF8D00" stroke-opacity="0.09" stroke-width="8"/>
<path d="M34.75 31.0001C34.75 35.1424 32.1423 37.7501 28 37.7501C23.8577 37.7501 21.25 35.1424 21.25 31.0001C21.25 26.5549 26.0889 20.554 27.573 18.8182C27.6258 18.7566 27.6913 18.707 27.7651 18.6731C27.8388 18.6392 27.919 18.6216 28.0002 18.6216C28.0814 18.6216 28.1617 18.6392 28.2354 18.6731C28.3092 18.707 28.3747 18.7566 28.4275 18.8182C29.9111 20.554 34.75 26.5549 34.75 31.0001Z" stroke="#FF8D00" stroke-width="1.5" stroke-miterlimit="10"/>
<path d="M32.125 31.375C32.125 32.2701 31.7694 33.1285 31.1365 33.7615C30.5035 34.3944 29.6451 34.75 28.75 34.75" stroke="#FF8D00" stroke-width="1.5" stroke-linecap="round" stroke-linejoin="round"/>
</svg>
